<svg width="266" height="45" viewBox="0 0 266 45" fill="none" xmlns="http://www.w3.org/2000/svg">
<path d="M0.2 45V40.776C1.18133 40.7333 1.992 40.6053 2.632 40.392C3.31467 40.1787 3.82667 39.688 4.168 38.92C4.552 38.152 4.744 36.9147 4.744 35.208V10.696C4.744 9.544 4.76533 8.43467 4.808 7.368C4.89333 6.30133 4.95733 5.49066 5 4.936C4.31733 4.97867 3.464 5.02133 2.44 5.064C1.416 5.064 0.669334 5.08533 0.2 5.128V0.199997C3.22933 0.157331 6.25867 0.135998 9.288 0.135998C12.3173 0.135998 15.3467 0.114665 18.376 0.0719986C22.1307 0.0293325 25.3947 0.455999 28.168 1.352C30.9413 2.248 33.0747 3.69867 34.568 5.704C36.0613 7.70933 36.7653 10.4187 36.68 13.832C36.6373 15.624 36.1893 17.3307 35.336 18.952C34.5253 20.5733 33.288 22.0027 31.624 23.24C30.0027 24.4773 27.9333 25.4587 25.416 26.184C26.2267 26.5253 27.016 27.08 27.784 27.848C28.5947 28.616 29.2773 29.4267 29.832 30.28L32.84 34.76C33.7787 36.2107 34.6107 37.3627 35.336 38.216C36.0613 39.0693 36.7867 39.7093 37.512 40.136C38.2373 40.52 39.0693 40.7333 40.008 40.776V45H29.448C28.68 44.4453 27.912 43.656 27.144 42.632C26.4187 41.5653 25.6293 40.3493 24.776 38.984L20.04 31.304C19.4853 30.4507 18.9947 29.7253 18.568 29.128C18.184 28.5307 17.7787 28.0187 17.352 27.592C16.6693 27.592 16.0933 27.592 15.624 27.592C15.1547 27.592 14.6213 27.592 14.024 27.592V34.44C14.024 35.6347 14.0027 36.7653 13.96 37.832C13.9173 38.8987 13.8533 39.7093 13.768 40.264C14.2373 40.2213 14.8347 40.2 15.56 40.2C16.2853 40.1573 16.9893 40.136 17.672 40.136C18.3973 40.0933 18.9093 40.072 19.208 40.072V45H0.2ZM17.096 22.984C19.4853 22.984 21.4053 22.6427 22.856 21.96C24.3067 21.2347 25.352 20.168 25.992 18.76C26.6747 17.3093 27.016 15.496 27.016 13.32C27.016 11.272 26.696 9.672 26.056 8.52C25.416 7.32533 24.6053 6.45066 23.624 5.896C22.6853 5.29867 21.7253 4.936 20.744 4.808C19.7627 4.63733 18.952 4.552 18.312 4.552C17.416 4.552 16.648 4.65866 16.008 4.872C15.368 5.08533 14.8773 5.55466 14.536 6.28C14.1947 7.00533 14.024 8.11467 14.024 9.608V22.728C14.4933 22.7707 14.984 22.8347 15.496 22.92C16.008 22.9627 16.5413 22.984 17.096 22.984ZM44.075 45V40.776C45.0563 40.7333 45.867 40.6053 46.507 40.392C47.1897 40.1787 47.7017 39.688 48.043 38.92C48.427 38.152 48.619 36.9147 48.619 35.208V10.696C48.619 9.544 48.6403 8.43467 48.683 7.368C48.7683 6.30133 48.8323 5.49066 48.875 4.936C48.1923 4.97867 47.339 5.02133 46.315 5.064C45.291 5.064 44.5443 5.08533 44.075 5.128V0.199997H62.443V4.424C61.5043 4.46667 60.6937 4.59467 60.011 4.808C59.3283 5.02133 58.795 5.512 58.411 6.28C58.0697 7.00533 57.899 8.24267 57.899 9.992V19.976H75.499V10.696C75.499 9.544 75.5203 8.43467 75.563 7.368C75.6057 6.30133 75.6697 5.49066 75.755 4.936C75.0723 4.97867 74.219 5.02133 73.195 5.064C72.171 5.064 71.4243 5.08533 70.955 5.128V0.199997H89.323V4.424C88.3843 4.46667 87.5737 4.59467 86.891 4.808C86.2083 5.02133 85.675 5.512 85.291 6.28C84.9497 7.00533 84.779 8.24267 84.779 9.992V34.504C84.779 35.656 84.7577 36.7653 84.715 37.832C84.6723 38.8987 84.6083 39.7093 84.523 40.264C85.2057 40.1787 86.059 40.136 87.083 40.136C88.1497 40.0933 88.8963 40.072 89.323 40.072V45H70.955V40.776C71.9363 40.7333 72.747 40.6053 73.387 40.392C74.0697 40.1787 74.5817 39.688 74.923 38.92C75.307 38.152 75.499 36.9147 75.499 35.208V24.84L57.899 25.032V34.504C57.899 35.656 57.8777 36.7653 57.835 37.832C57.7923 38.8987 57.7283 39.7093 57.643 40.264C58.3257 40.1787 59.179 40.136 60.203 40.136C61.2697 40.0933 62.0163 40.072 62.443 40.072V45H44.075ZM105.492 45V40.776C106.473 40.7333 107.284 40.6053 107.924 40.392C108.607 40.1787 109.119 39.688 109.46 38.92C109.844 38.152 110.036 36.9147 110.036 35.208V29.64L98.26 11.016C97.6627 10.0347 97.108 8.94667 96.596 7.752C96.084 6.55733 95.828 5.61867 95.828 4.936C95.1453 4.97867 94.5693 5.02133 94.1 5.064C93.6307 5.064 93.1613 5.08533 92.692 5.128V0.199997H111.572V4.424C110.335 4.33867 109.311 4.46666 108.5 4.808C107.689 5.14933 107.199 5.704 107.028 6.472C106.857 7.19733 107.113 8.15733 107.796 9.352L112.66 17.352C112.873 17.6933 113.193 18.248 113.62 19.016C114.047 19.7413 114.473 20.5307 114.9 21.384C115.369 22.1947 115.711 22.92 115.924 23.56H115.988C116.201 23.048 116.564 22.28 117.076 21.256C117.588 20.232 118.228 18.9093 118.996 17.288L122.324 10.76C122.537 10.2907 122.836 9.69333 123.22 8.968C123.604 8.2 124.009 7.45333 124.436 6.728C124.905 5.96 125.332 5.34133 125.716 4.872C125.033 4.91466 124.159 4.95733 123.092 5C122.025 5.04267 121.257 5.08533 120.788 5.128V0.199997H134.932V4.424C133.439 4.63733 132.159 5.256 131.092 6.28C130.025 7.26133 128.873 8.92533 127.636 11.272C126.271 13.9173 124.884 16.584 123.476 19.272C122.068 21.96 120.681 24.6267 119.316 27.272C119.316 27.8693 119.316 28.4667 119.316 29.064C119.316 29.6613 119.316 30.28 119.316 30.92C119.316 31.5173 119.316 32.1147 119.316 32.712C119.316 33.3093 119.316 33.9067 119.316 34.504C119.316 35.656 119.295 36.7653 119.252 37.832C119.209 38.8987 119.145 39.7093 119.06 40.264C119.785 40.1787 120.703 40.136 121.812 40.136C122.964 40.0933 123.753 40.072 124.18 40.072V45H105.492ZM138.388 40.776C139.369 40.7333 140.18 40.6053 140.82 40.392C141.502 40.1787 142.014 39.688 142.356 38.92C142.74 38.152 142.932 36.9147 142.932 35.208V10.696C142.932 9.544 142.953 8.43467 142.996 7.368C143.081 6.30133 143.145 5.49066 143.188 4.936C142.505 4.97867 141.652 5.02133 140.628 5.064C139.604 5.064 138.857 5.08533 138.388 5.128V0.199997L157.012 0.135998C161.236 0.135998 164.884 0.775998 167.956 2.056C171.07 3.29333 173.609 4.97867 175.572 7.112C177.577 9.24533 179.07 11.6347 180.052 14.28C181.033 16.8827 181.524 19.5067 181.524 22.152C181.524 24.7547 181.054 27.4 180.116 30.088C179.22 32.776 177.79 35.2507 175.828 37.512C173.865 39.7307 171.305 41.544 168.148 42.952C164.99 44.3173 161.172 45 156.692 45H138.388V40.776ZM152.212 34.504C152.212 35.656 152.19 36.7653 152.148 37.832C152.105 38.8987 152.041 39.7093 151.956 40.264C152.382 40.2213 152.958 40.2213 153.684 40.264C154.452 40.264 155.241 40.2853 156.052 40.328C156.862 40.328 157.524 40.328 158.036 40.328C160.382 40.328 162.388 39.8587 164.052 38.92C165.758 37.9813 167.145 36.7227 168.212 35.144C169.321 33.5227 170.132 31.7093 170.644 29.704C171.156 27.6987 171.412 25.6293 171.412 23.496C171.412 19.144 170.814 15.5813 169.62 12.808C168.425 10.0347 166.74 7.96533 164.564 6.6C162.43 5.23466 159.87 4.50933 156.884 4.424C155.86 4.38133 154.985 4.488 154.26 4.744C153.577 4.95733 153.065 5.448 152.724 6.216C152.382 6.984 152.212 8.2 152.212 9.864V34.504ZM207.835 29.576C207.835 27.784 207.558 26.504 207.003 25.736C206.448 24.9253 205.68 24.4133 204.699 24.2C203.76 23.9867 202.715 23.9013 201.563 23.944L199.899 24.008V34.504C199.899 35.656 199.878 36.744 199.835 37.768C199.792 38.792 199.728 39.5813 199.643 40.136H208.219C209.499 40.136 210.736 39.8587 211.931 39.304C213.126 38.7067 214.107 37.7467 214.875 36.424C215.643 35.0587 216.027 33.224 216.027 30.92H220.187L219.867 45H186.075V40.776C187.056 40.7333 187.867 40.6053 188.507 40.392C189.19 40.1787 189.702 39.688 190.043 38.92C190.427 38.152 190.619 36.9147 190.619 35.208V10.696C190.619 9.544 190.64 8.43467 190.683 7.368C190.768 6.30133 190.832 5.49066 190.875 4.936C190.192 4.97867 189.339 5.02133 188.315 5.064C187.291 5.064 186.544 5.08533 186.075 5.128V0.199997H218.075L218.459 12.616H214.235C214.235 10.2693 213.83 8.49866 213.019 7.304C212.208 6.10933 211.206 5.32 210.011 4.936C208.816 4.50933 207.643 4.31733 206.491 4.36L204.187 4.424C203.291 4.424 202.523 4.552 201.883 4.808C201.243 5.02133 200.752 5.53333 200.411 6.344C200.07 7.112 199.899 8.328 199.899 9.992V19.592H207.387L207.131 14.024H212.059V29.576H207.835ZM226.013 45V40.776C226.994 40.7333 227.805 40.6053 228.445 40.392C229.127 40.1787 229.639 39.688 229.981 38.92C230.365 38.152 230.557 36.9147 230.557 35.208V10.696C230.557 9.544 230.578 8.43467 230.621 7.368C230.706 6.30133 230.77 5.49066 230.812 4.936C230.13 4.97867 229.277 5.02133 228.253 5.064C227.229 5.064 226.482 5.08533 226.013 5.128V0.199997C229.042 0.157331 232.071 0.135998 235.101 0.135998C238.13 0.135998 241.159 0.114665 244.189 0.0719986C247.943 0.0293325 251.207 0.455999 253.981 1.352C256.754 2.248 258.887 3.69867 260.381 5.704C261.874 7.70933 262.578 10.4187 262.493 13.832C262.45 15.624 262.002 17.3307 261.149 18.952C260.338 20.5733 259.101 22.0027 257.437 23.24C255.815 24.4773 253.746 25.4587 251.229 26.184C252.039 26.5253 252.829 27.08 253.597 27.848C254.407 28.616 255.09 29.4267 255.645 30.28L258.653 34.76C259.591 36.2107 260.423 37.3627 261.149 38.216C261.874 39.0693 262.599 39.7093 263.325 40.136C264.05 40.52 264.882 40.7333 265.821 40.776V45H255.261C254.493 44.4453 253.725 43.656 252.957 42.632C252.231 41.5653 251.442 40.3493 250.589 38.984L245.853 31.304C245.298 30.4507 244.807 29.7253 244.381 29.128C243.997 28.5307 243.591 28.0187 243.165 27.592C242.482 27.592 241.906 27.592 241.437 27.592C240.967 27.592 240.434 27.592 239.837 27.592V34.44C239.837 35.6347 239.815 36.7653 239.773 37.832C239.73 38.8987 239.666 39.7093 239.581 40.264C240.05 40.2213 240.647 40.2 241.373 40.2C242.098 40.1573 242.802 40.136 243.485 40.136C244.21 40.0933 244.722 40.072 245.021 40.072V45H226.013ZM242.909 22.984C245.298 22.984 247.218 22.6427 248.669 21.96C250.119 21.2347 251.165 20.168 251.805 18.76C252.487 17.3093 252.829 15.496 252.829 13.32C252.829 11.272 252.509 9.672 251.869 8.52C251.229 7.32533 250.418 6.45066 249.437 5.896C248.498 5.29867 247.538 4.936 246.557 4.808C245.575 4.63733 244.765 4.552 244.125 4.552C243.229 4.552 242.461 4.65866 241.821 4.872C241.181 5.08533 240.69 5.55466 240.349 6.28C240.007 7.00533 239.837 8.11467 239.837 9.608V22.728C240.306 22.7707 240.797 22.8347 241.309 22.92C241.821 22.9627 242.354 22.984 242.909 22.984Z" fill="#1E1E1E"/>
</svg>
